<svg width="1440" height="1024" viewBox="0 0 1440 1024" fill="none" xmlns="http://www.w3.org/2000/svg">
<g filter="url(#filter0_f_168_16)">
<path d="M-297.778 736.174C-433.24 608.459 -174.647 380.251 -50.5609 289.627C209 112.148 389.339 353.934 404.925 494.673C420.511 635.413 349.051 929.572 165.21 820.101C68.5014 762.515 -119.522 904.237 -297.778 736.174Z" fill="url(#paint0_radial_168_16)"/>
</g>
<g filter="url(#filter1_f_168_16)">
<path d="M1679.94 236.892C1750.95 361.069 1509.82 470.979 1398.34 509.839C1167.85 582.243 1089.37 364.18 1109.39 257.242C1129.42 150.303 1247.74 -49.9397 1358.39 71.6465C1416.59 135.606 1586.5 73.4858 1679.94 236.892Z" fill="url(#paint1_radial_168_16)"/>
</g>
<g filter="url(#filter2_f_168_16)">
<path d="M88.988 -268.902C272.856 -403.409 509.616 -64.1317 599.713 95.3698C773.126 426.9 438.989 593.425 260.881 586.869C82.7721 580.313 -270.418 446.162 -100.4 252.455C-10.9629 150.556 -152.966 -91.9013 88.988 -268.902Z" fill="url(#paint2_radial_168_16)"/>
</g>
<g filter="url(#filter3_f_168_16)">
<path d="M1360.2 1440.12C1194.96 1497.86 1096.81 1195.52 1066.26 1058.12C1012.94 775.639 1295.79 727.967 1425.25 772.623C1554.7 817.278 1784.32 994.884 1616.02 1099.24C1527.48 1154.14 1577.64 1364.13 1360.2 1440.12Z" fill="url(#paint3_radial_168_16)"/>
</g>
<defs>
<filter id="filter0_f_168_16" x="-436" y="127" width="943" height="817" filterUnits="userSpaceOnUse" color-interpolation-filters="sRGB">
<feFlood flood-opacity="0" result="BackgroundImageFix"/>
<feBlend mode="normal" in="SourceGraphic" in2="BackgroundImageFix" result="shape"/>
<feGaussianBlur stdDeviation="50" result="effect1_foregroundBlur_168_16"/>
</filter>
<filter id="filter1_f_168_16" x="1006.39" y="-66.291" width="786.406" height="690.566" filterUnits="userSpaceOnUse" color-interpolation-filters="sRGB">
<feFlood flood-opacity="0" result="BackgroundImageFix"/>
<feBlend mode="normal" in="SourceGraphic" in2="BackgroundImageFix" result="shape"/>
<feGaussianBlur stdDeviation="50" result="effect1_foregroundBlur_168_16"/>
</filter>
<filter id="filter2_f_168_16" x="-245.461" y="-399.756" width="993.643" height="1086.81" filterUnits="userSpaceOnUse" color-interpolation-filters="sRGB">
<feFlood flood-opacity="0" result="BackgroundImageFix"/>
<feBlend mode="normal" in="SourceGraphic" in2="BackgroundImageFix" result="shape"/>
<feGaussianBlur stdDeviation="50" result="effect1_foregroundBlur_168_16"/>
</filter>
<filter id="filter3_f_168_16" x="959.645" y="658.023" width="815.771" height="889.335" filterUnits="userSpaceOnUse" color-interpolation-filters="sRGB">
<feFlood flood-opacity="0" result="BackgroundImageFix"/>
<feBlend mode="normal" in="SourceGraphic" in2="BackgroundImageFix" result="shape"/>
<feGaussianBlur stdDeviation="50" result="effect1_foregroundBlur_168_16"/>
</filter>
<radialGradient id="paint0_radial_168_16" cx="0" cy="0" r="1" gradientUnits="userSpaceOnUse" gradientTransform="translate(68.4774 512.695) rotate(44.3826) scale(473.667 538.946)">
<stop stop-color="#FF8B8B" stop-opacity="0.74"/>
<stop offset="0.578125" stop-color="#FFD88B" stop-opacity="0.2"/>
<stop offset="0.875" stop-color="#FFD88B" stop-opacity="0"/>
</radialGradient>
<radialGradient id="paint1_radial_168_16" cx="0" cy="0" r="1" gradientUnits="userSpaceOnUse" gradientTransform="translate(1360.74 319.246) rotate(-118.694) scale(363.937 414.093)">
<stop stop-color="#FF8B8B" stop-opacity="0.74"/>
<stop offset="0.578125" stop-color="#FFD88B" stop-opacity="0.2"/>
<stop offset="0.875" stop-color="#FFD88B" stop-opacity="0"/>
</radialGradient>
<radialGradient id="paint2_radial_168_16" cx="0" cy="0" r="1" gradientUnits="userSpaceOnUse" gradientTransform="translate(262.949 268.555) rotate(-66.652) scale(416.022 493.885)">
<stop offset="0.0710613" stop-color="#C5B0FF" stop-opacity="0.5"/>
<stop offset="0.638054" stop-color="#F7B476" stop-opacity="0.2"/>
<stop offset="0.875" stop-color="#FFD88B" stop-opacity="0.04"/>
</radialGradient>
<radialGradient id="paint3_radial_168_16" cx="0" cy="0" r="1" gradientUnits="userSpaceOnUse" gradientTransform="translate(1352.53 1006.14) rotate(130.272) scale(319.646 379.471)">
<stop offset="0.0710613" stop-color="#C5B0FF" stop-opacity="0.5"/>
<stop offset="0.638054" stop-color="#F7B476" stop-opacity="0.2"/>
<stop offset="0.875" stop-color="#FFD88B" stop-opacity="0.04"/>
</radialGradient>
</defs>
</svg>
