<svg width="80" height="80" viewBox="0 0 80 80" fill="none" xmlns="http://www.w3.org/2000/svg">
<path d="M28.2151 46.8357C26.9133 45.5339 24.8028 45.5339 23.501 46.8357C22.1993 48.1374 22.1993 50.248 23.5011 51.5497L37.6431 65.6918C38.9449 66.9936 41.0554 66.9936 42.3572 65.6918L56.4993 51.5497C57.801 50.248 57.801 48.1374 56.4993 46.8357C55.1975 45.5339 53.087 45.5339 51.7852 46.8357L43.3333 55.2876V30C43.3333 28.1591 41.841 26.6667 40 26.6667C38.159 26.6667 36.6667 28.1591 36.6667 30V55.2873L28.2151 46.8357Z" fill="url(#paint0_linear_168_236)"/>
<path fill-rule="evenodd" clip-rule="evenodd" d="M10 0C8.73743 0 7.58322 0.713341 7.01858 1.84262L0.381896 15.116C0.138022 15.5792 0 16.1068 0 16.6667V73.3333C0 75.1014 0.702379 76.7971 1.95262 78.0474C3.20287 79.2976 4.89856 80 6.66667 80H73.3333C75.1014 80 76.7971 79.2976 78.0474 78.0474C79.2976 76.7971 80 75.1014 80 73.3333V16.6667C80 16.6153 79.9988 16.5641 79.9965 16.5129C79.9736 16.0102 79.8395 15.5365 79.6181 15.1159L72.9814 1.84262C72.4168 0.713341 71.2626 0 70 0H10ZM71.2732 13.3333L67.9399 6.66667H12.0601L8.72678 13.3333H71.2732ZM6.66667 20V73.3333H73.3333V20H6.66667Z" fill="url(#paint1_linear_168_236)"/>
<defs>
<linearGradient id="paint0_linear_168_236" x1="97.25" y1="-0.559364" x2="10.9353" y2="85.7554" gradientUnits="userSpaceOnUse">
<stop stop-color="white"/>
<stop offset="1" stop-color="white" stop-opacity="0"/>
</linearGradient>
<linearGradient id="paint1_linear_168_236" x1="97.25" y1="-0.559364" x2="10.9353" y2="85.7554" gradientUnits="userSpaceOnUse">
<stop stop-color="white"/>
<stop offset="1" stop-color="white" stop-opacity="0"/>
</linearGradient>
</defs>
</svg>
