<svg width="795" height="632" viewBox="0 0 795 632" fill="none" xmlns="http://www.w3.org/2000/svg">
<path d="M9.8262 715.286C50.7398 666.766 90.2799 617.239 132.567 569.727C165.952 532.217 240.555 440.994 303.995 417.601C374.925 391.446 386.678 497.28 382.231 535.597C380.194 553.148 372.475 584.025 354.275 595.67C329.983 611.214 349.239 539.737 360.968 514.729C386.592 460.09 429.102 416.026 476.384 376.285C518.197 341.139 546.021 322.659 592.825 294.677C625.253 275.29 661.724 257.977 692.795 236.42C777.757 177.471 811.562 98.347 844.997 10.0004" stroke="#E7C7A3" stroke-opacity="0.4" stroke-width="19" stroke-linecap="round"/>
<path d="M9.8262 715.286C50.7398 666.766 90.2799 617.239 132.567 569.727C165.952 532.217 240.555 440.994 303.995 417.601C374.925 391.446 386.678 497.28 382.231 535.597C380.194 553.148 372.475 584.025 354.275 595.67C329.983 611.214 349.239 539.737 360.968 514.729C386.592 460.09 429.102 416.026 476.384 376.285C518.197 341.139 546.021 322.659 592.825 294.677C625.253 275.29 661.724 257.977 692.795 236.42C777.757 177.471 811.562 98.347 844.997 10.0004" stroke="url(#paint0_radial_168_24)" stroke-width="19" stroke-linecap="round"/>
<defs>
<radialGradient id="paint0_radial_168_24" cx="0" cy="0" r="1" gradientUnits="userSpaceOnUse" gradientTransform="translate(427.412 362.643) rotate(149.676) scale(220.798 435.384)">
<stop stop-color="#FF9E30"/>
<stop offset="1" stop-color="#FF9E30" stop-opacity="0"/>
</radialGradient>
</defs>
</svg>
