<svg width="120" height="120" viewBox="0 0 120 120" fill="none" xmlns="http://www.w3.org/2000/svg">
<path fill-rule="evenodd" clip-rule="evenodd" d="M10 19.0909C10 14.0701 14.0701 10 19.0909 10H46.3636C51.3844 10 55.4545 14.0701 55.4545 19.0909V46.3636C55.4545 51.3844 51.3844 55.4545 46.3636 55.4545H19.0909C14.0701 55.4545 10 51.3844 10 46.3636V19.0909ZM46.3636 19.0909H19.0909V46.3636H46.3636V19.0909Z" fill="url(#paint0_linear_168_555)"/>
<path fill-rule="evenodd" clip-rule="evenodd" d="M10 73.6364C10 68.6156 14.0701 64.5455 19.0909 64.5455H46.3636C51.3844 64.5455 55.4545 68.6156 55.4545 73.6364V100.909C55.4545 105.93 51.3844 110 46.3636 110H19.0909C14.0701 110 10 105.93 10 100.909V73.6364ZM46.3636 73.6364H19.0909V100.909H46.3636V73.6364Z" fill="url(#paint1_linear_168_555)"/>
<path fill-rule="evenodd" clip-rule="evenodd" d="M73.6364 10C68.6156 10 64.5455 14.0701 64.5455 19.0909V46.3636C64.5455 51.3844 68.6156 55.4545 73.6364 55.4545H100.909C105.93 55.4545 110 51.3844 110 46.3636V19.0909C110 14.0701 105.93 10 100.909 10H73.6364ZM73.6364 19.0909H100.909V46.3636H73.6364V19.0909Z" fill="url(#paint2_linear_168_555)"/>
<path d="M69.0909 64.5455C71.6013 64.5455 73.6364 66.5805 73.6364 69.0909V87.2727C73.6364 89.7831 71.6013 91.8182 69.0909 91.8182C66.5805 91.8182 64.5455 89.7831 64.5455 87.2727V69.0909C64.5455 66.5805 66.5805 64.5455 69.0909 64.5455Z" fill="url(#paint3_linear_168_555)"/>
<path d="M91.8179 69.0909C91.8179 66.5805 89.7828 64.5455 87.2724 64.5455C84.7621 64.5455 82.727 66.5805 82.727 69.0909V100.909H69.0906C66.5802 100.909 64.5452 102.944 64.5452 105.455C64.5452 107.965 66.5802 110 69.0906 110H87.2724C89.7828 110 91.8179 107.965 91.8179 105.455V82.7273H105.455C107.965 82.7273 110 80.6922 110 78.1818C110 75.6714 107.965 73.6364 105.455 73.6364H91.8179V69.0909Z" fill="url(#paint4_linear_168_555)"/>
<path d="M110 96.3636C110 93.8533 107.965 91.8182 105.455 91.8182C102.944 91.8182 100.909 93.8533 100.909 96.3636V105.455C100.909 107.965 102.944 110 105.455 110C107.965 110 110 107.965 110 105.455V96.3636Z" fill="url(#paint5_linear_168_555)"/>
<defs>
<linearGradient id="paint0_linear_168_555" x1="99.5833" y1="22.5" x2="-6.6667" y2="151.667" gradientUnits="userSpaceOnUse">
<stop stop-color="#4F7ABB" stop-opacity="0.57"/>
<stop offset="1" stop-color="#FF9E30" stop-opacity="0.29"/>
</linearGradient>
<linearGradient id="paint1_linear_168_555" x1="99.5833" y1="22.5" x2="-6.6667" y2="151.667" gradientUnits="userSpaceOnUse">
<stop stop-color="#4F7ABB" stop-opacity="0.57"/>
<stop offset="1" stop-color="#FF9E30" stop-opacity="0.29"/>
</linearGradient>
<linearGradient id="paint2_linear_168_555" x1="99.5833" y1="22.5" x2="-6.6667" y2="151.667" gradientUnits="userSpaceOnUse">
<stop stop-color="#4F7ABB" stop-opacity="0.57"/>
<stop offset="1" stop-color="#FF9E30" stop-opacity="0.29"/>
</linearGradient>
<linearGradient id="paint3_linear_168_555" x1="99.5833" y1="22.5" x2="-6.6667" y2="151.667" gradientUnits="userSpaceOnUse">
<stop stop-color="#4F7ABB" stop-opacity="0.57"/>
<stop offset="1" stop-color="#FF9E30" stop-opacity="0.29"/>
</linearGradient>
<linearGradient id="paint4_linear_168_555" x1="99.5833" y1="22.5" x2="-6.6667" y2="151.667" gradientUnits="userSpaceOnUse">
<stop stop-color="#4F7ABB" stop-opacity="0.57"/>
<stop offset="1" stop-color="#FF9E30" stop-opacity="0.29"/>
</linearGradient>
<linearGradient id="paint5_linear_168_555" x1="99.5833" y1="22.5" x2="-6.6667" y2="151.667" gradientUnits="userSpaceOnUse">
<stop stop-color="#4F7ABB" stop-opacity="0.57"/>
<stop offset="1" stop-color="#FF9E30" stop-opacity="0.29"/>
</linearGradient>
</defs>
</svg>
