<svg width="120" height="120" viewBox="0 0 120 120" fill="none" xmlns="http://www.w3.org/2000/svg">
<path d="M45.2687 68.5446C43.6415 66.9174 41.0033 66.9174 39.3762 68.5446C37.749 70.1718 37.749 72.81 39.3762 74.4372L57.0538 92.1148C58.6809 93.742 61.3191 93.742 62.9463 92.1148L80.6239 74.4372C82.2511 72.81 82.2511 70.1718 80.6239 68.5446C78.9967 66.9174 76.3586 66.9174 74.7314 68.5446L64.1667 79.1093V47.5C64.1667 45.1988 62.3012 43.3333 60 43.3333C57.6988 43.3333 55.8333 45.1988 55.8333 47.5V79.1092L45.2687 68.5446Z" fill="url(#paint0_linear_168_65)"/>
<path fill-rule="evenodd" clip-rule="evenodd" d="M22.5 10C20.9218 10 19.479 10.8917 18.7732 12.3033L10.4774 28.895C10.1725 29.474 10 30.1335 10 30.8333V101.667C10 103.877 10.878 105.996 12.4408 107.559C14.0036 109.122 16.1232 110 18.3333 110H101.667C103.877 110 105.996 109.122 107.559 107.559C109.122 105.996 110 103.877 110 101.667V30.8333C110 30.7803 109.999 30.7273 109.997 30.6745C109.973 30.0337 109.804 29.4299 109.523 28.8949L101.227 12.3033C100.521 10.8917 99.0782 10 97.5 10H22.5ZM99.0915 26.6667L94.9249 18.3333H25.0751L20.9085 26.6667H99.0915ZM18.3333 35V101.667H101.667V35H18.3333Z" fill="url(#paint1_linear_168_65)"/>
<defs>
<linearGradient id="paint0_linear_168_65" x1="99.5833" y1="22.5" x2="-6.6667" y2="151.667" gradientUnits="userSpaceOnUse">
<stop stop-color="#4F7ABB" stop-opacity="0.57"/>
<stop offset="1" stop-color="#FF9E30" stop-opacity="0.29"/>
</linearGradient>
<linearGradient id="paint1_linear_168_65" x1="99.5833" y1="22.5" x2="-6.6667" y2="151.667" gradientUnits="userSpaceOnUse">
<stop stop-color="#4F7ABB" stop-opacity="0.57"/>
<stop offset="1" stop-color="#FF9E30" stop-opacity="0.29"/>
</linearGradient>
</defs>
</svg>
