<svg width="80" height="80" viewBox="0 0 80 80" fill="none" xmlns="http://www.w3.org/2000/svg">
<path fill-rule="evenodd" clip-rule="evenodd" d="M50.7148 1.90609C51.9352 0.685642 53.5905 0 55.3165 0C57.0425 0 58.6978 0.685642 59.9182 1.90609L78.0939 20.0818C79.3144 21.3022 80 22.9575 80 24.6835C80 26.4095 79.3144 28.0648 78.0939 29.2852L67.4127 39.9664L67.3791 40.0005L67.345 40.0341L33.8869 73.4922H74.8395C76.6366 73.4922 78.0934 74.949 78.0934 76.7461C78.0934 78.5432 76.6366 80 74.8395 80L26.0313 80C26.0292 80 26.0266 80 26.0245 80H6.50782C4.78185 80 3.12656 79.3144 1.9061 78.0939C0.685644 76.8734 0 75.2181 0 73.4922V55.3165C0 54.5688 0.128832 53.8276 0.380062 53.1251C0.401462 53.0622 0.424843 52.9998 0.450202 52.9381C0.464908 52.9006 0.479967 52.8633 0.495379 52.8261C0.822426 52.0365 1.30179 51.3191 1.9061 50.7148L50.7148 1.90609ZM6.50783 61.8248L6.50782 73.4922H18.1752L6.50783 61.8248ZM26.0311 72.1446L7.85539 53.9689L42.3006 19.5237L60.4763 37.6994L26.0311 72.1446ZM73.4922 24.6835L65.078 33.0976L46.9023 14.922L55.3165 6.50782L73.4922 24.6835Z" fill="url(#paint0_linear_168_239)"/>
<defs>
<linearGradient id="paint0_linear_168_239" x1="97.25" y1="-0.559364" x2="10.9353" y2="85.7554" gradientUnits="userSpaceOnUse">
<stop stop-color="white"/>
<stop offset="1" stop-color="white" stop-opacity="0"/>
</linearGradient>
</defs>
</svg>
