<svg width="72" height="24" viewBox="0 0 72 24" fill="none" xmlns="http://www.w3.org/2000/svg">
<path d="M12.6 11.976V23.136H15.216V14.568H19.68V23.04H22.416V11.976H12.6ZM15.792 0.647999V12.672H18.6V0.647999H15.792ZM17.472 5.592V8.256H23.256V5.592H17.472ZM13.968 19.608V22.224H20.952V19.608H13.968ZM3.72 3.288H9.552V8.52H3.72V3.288ZM1.584 1.344V10.464H11.784V1.344H1.584ZM3.672 4.32C4.032 5.424 4.32 6.864 4.368 7.824L5.616 7.416C5.544 6.504 5.232 5.064 4.848 3.96L3.672 4.32ZM4.248 18.072C4.512 19.416 4.704 21.144 4.656 22.296L6.504 22.08C6.504 20.928 6.312 19.2 6 17.856L4.248 18.072ZM6.648 17.976C7.104 19.248 7.536 20.928 7.632 22.008L9.408 21.624C9.288 20.544 8.832 18.912 8.352 17.664L6.648 17.976ZM9 17.76C9.72 18.96 10.464 20.568 10.752 21.624L12.552 20.88C12.264 19.824 11.496 18.288 10.704 17.136L9 17.76ZM2.16 17.928C1.92 19.512 1.392 21.192 0.504 22.2L2.376 23.16C3.36 22.056 3.792 20.232 4.08 18.504L2.16 17.928ZM8.376 3.936C8.184 4.944 7.752 6.48 7.416 7.464L8.472 7.848C8.88 6.984 9.36 5.592 9.816 4.44L8.376 3.936ZM1.008 14.952L1.104 17.376C4.032 17.232 8.136 17.04 12.048 16.8L12.12 14.568C8.064 14.736 3.816 14.88 1.008 14.952ZM1.608 11.496V13.68H11.712V11.496H1.608ZM5.712 2.328V9.576H5.328V15.84H7.848V9.576H7.464V2.328H5.712ZM36.6 11.976V23.136H39.216V14.568H43.68V23.04H46.416V11.976H36.6ZM39.792 0.647999V12.672H42.6V0.647999H39.792ZM41.472 5.592V8.256H47.256V5.592H41.472ZM37.968 19.608V22.224H44.952V19.608H37.968ZM27.72 3.288H33.552V8.52H27.72V3.288ZM25.584 1.344V10.464H35.784V1.344H25.584ZM27.672 4.32C28.032 5.424 28.32 6.864 28.368 7.824L29.616 7.416C29.544 6.504 29.232 5.064 28.848 3.96L27.672 4.32ZM28.248 18.072C28.512 19.416 28.704 21.144 28.656 22.296L30.504 22.08C30.504 20.928 30.312 19.2 30 17.856L28.248 18.072ZM30.648 17.976C31.104 19.248 31.536 20.928 31.632 22.008L33.408 21.624C33.288 20.544 32.832 18.912 32.352 17.664L30.648 17.976ZM33 17.76C33.72 18.96 34.464 20.568 34.752 21.624L36.552 20.88C36.264 19.824 35.496 18.288 34.704 17.136L33 17.76ZM26.16 17.928C25.92 19.512 25.392 21.192 24.504 22.2L26.376 23.16C27.36 22.056 27.792 20.232 28.08 18.504L26.16 17.928ZM32.376 3.936C32.184 4.944 31.752 6.48 31.416 7.464L32.472 7.848C32.88 6.984 33.36 5.592 33.816 4.44L32.376 3.936ZM25.008 14.952L25.104 17.376C28.032 17.232 32.136 17.04 36.048 16.8L36.12 14.568C32.064 14.736 27.816 14.88 25.008 14.952ZM25.608 11.496V13.68H35.712V11.496H25.608ZM29.712 2.328V9.576H29.328V15.84H31.848V9.576H31.464V2.328H29.712ZM56.352 9.648V11.568H63.816V9.648H56.352ZM54.408 17.184C53.472 19.008 51.312 20.352 48.84 21.12C49.392 21.624 50.256 22.704 50.616 23.232C53.328 22.128 55.8 20.328 57.072 17.808L54.408 17.184ZM60 7.776C62.328 9.864 66.576 11.976 69.864 13.008C70.272 12.264 70.872 11.28 71.472 10.68C67.776 9.816 63.936 8.088 61.2 5.688H58.56C56.568 7.728 52.656 9.792 48.768 10.896C49.272 11.448 49.872 12.48 50.184 13.08C53.928 11.88 57.84 9.768 60 7.776ZM54.312 14.352H56.592V15.816H54.312V14.352ZM51.6 12.408V17.736H59.448V12.408H51.6ZM63.216 14.352H65.592V15.816H63.216V14.352ZM60.504 12.408V17.736H68.448V12.408H60.504ZM53.568 20.4C54.792 20.928 56.328 21.864 57.144 22.56L58.8 20.52C57.936 19.896 56.448 19.056 55.176 18.552L53.568 20.4ZM62.856 17.232C62.184 19.152 60.432 20.496 58.128 21.264C58.68 21.696 59.592 22.728 59.952 23.256C62.52 22.152 64.608 20.328 65.52 17.664L62.856 17.232ZM62.136 20.664C64.32 21.312 67.128 22.392 68.712 23.184L70.536 21.048C68.856 20.328 66.12 19.344 63.912 18.744L62.136 20.664ZM52.08 2.448V4.584H59.52V2.448H52.08ZM61.704 2.448V4.584H71.112V2.448H61.704ZM52.2 0.431999C51.432 2.472 50.088 4.536 48.576 5.856C49.248 6.216 50.4 6.96 50.928 7.392C52.368 5.88 53.928 3.504 54.864 1.128L52.2 0.431999ZM61.944 0.431999C61.248 2.112 59.976 3.768 58.536 4.848C59.184 5.208 60.336 5.952 60.864 6.432C62.304 5.184 63.792 3.168 64.656 1.128L61.944 0.431999ZM53.016 4.104C53.64 5.088 54.312 6.456 54.528 7.296L57.072 6.48C56.784 5.616 56.04 4.296 55.416 3.36L53.016 4.104ZM63.384 4.104C64.224 5.04 65.16 6.336 65.568 7.176L68.256 6.408C67.8 5.52 66.792 4.272 65.952 3.384L63.384 4.104Z" fill="#59597C"/>
</svg>
